<svg width="301" height="291" viewBox="0 0 301 291" fill="none" xmlns="http://www.w3.org/2000/svg">
<mask id="path-1-inside-1_2002_4" fill="white">
<path d="M147.273 1.78333C149.993 -1.14484 151.882 -0.121399 154.235 2.36438C171.795 20.9094 174.838 49.6633 160.953 72.1915C157.706 77.4605 156.242 82.5493 156.559 88.5822C156.878 94.6732 156.629 100.795 156.629 107.591C159.611 106.188 160.02 103.967 160.889 102.159C170.832 81.4615 186.965 68.9302 209.703 65.1134C211.007 64.8945 212.359 64.9191 213.689 64.9005C222.761 64.774 223.431 65.5083 221.185 74.5753C214.976 99.634 197.885 113.217 173.708 119.185C165.995 121.089 157.276 130.781 157.018 138.892C156.728 148.028 157.204 157.19 157.405 166.339C157.422 167.093 157.893 167.838 158.522 169.651C163.51 164.732 168.011 160.293 172.761 155.613C197.299 133.916 225.718 121.661 257.624 116.727C270.056 114.804 282.467 114.845 294.942 114.825C299.225 114.819 300.778 116.433 300.761 120.758C300.638 152.255 300.605 183.754 300.793 215.25C300.821 219.968 298.934 220.78 294.855 220.595C267.864 219.367 241.789 223.581 216.896 234.313C190.034 245.894 168.246 263.613 152.134 288.147C151.602 288.956 150.939 289.679 150.436 290.317C148.919 290.281 148.552 289.221 148.06 288.433C131.23 261.517 106.963 243.884 77.8935 232.298C55.1506 223.233 31.4877 219.544 7.05854 220.476C0.0423636 220.743 0.0143785 220.683 0.0116625 213.929C-0.000544398 183.264 -0.00521362 152.6 0.00775623 121.936C0.0105942 115.23 0.301015 115.12 7.08881 114.84C36.6848 113.618 65.1158 118.502 92.0341 131.103C109.881 139.457 125.745 150.568 138.653 165.637C139.715 166.876 140.536 168.42 142.538 169.102C144.18 167.449 143.936 165.239 143.958 163.184C144.029 156.685 143.996 150.185 144.017 143.686C144.054 131.653 136.372 121.773 124.77 118.679C100.432 112.187 84.6165 97.3121 79.4111 72.1515C78.1051 65.8391 78.946 64.6336 85.4492 64.9347C110.491 66.0942 127.859 78.7141 138.68 100.983C140.154 104.017 140.703 107.573 143.28 110.133C145.1 108.788 144.954 107.05 144.964 105.441C145.008 97.7747 144.946 90.1079 145.021 82.4425C145.043 80.3016 144.274 78.6004 143.025 76.9542C135.986 67.6766 131.85 57.1307 131.349 45.59C130.626 28.9514 135.783 14.157 147.273 1.78333ZM21.7021 128.64C15.0619 128.336 13.7098 129.317 13.7011 134.374C13.664 156.027 13.757 177.681 13.6415 199.334C13.6166 204.019 15.4345 205.992 20.1494 205.89C42.4522 205.406 63.639 210.658 84.9902 218.93C107.077 228.006 126.415 241.161 143.462 259.589C143.691 255.199 143.968 252.23 143.979 249.26C144.031 235.269 143.698 221.267 144.142 207.29C144.377 199.865 142.126 193.635 138.187 187.658C124.688 167.175 106.362 152.495 84.1035 142.53C64.2545 133.645 43.3073 129.63 21.7021 128.64ZM286.916 131.425C286.548 128.235 284.092 128.584 281.984 128.67C270.681 129.132 259.448 130.215 248.367 132.622C218.938 139.014 193.282 152.276 172.822 174.663C162.52 185.936 157.869 186.123 157.405 207.29C157.023 224.75 156.905 238.769 156.768 250.753C156.741 253.191 156.461 255.714 158.11 257.919C160.292 257.353 161.307 255.487 162.684 254.135C168.989 247.942 175.462 241.95 182.749 236.911C211.878 216.769 244.069 206.155 279.568 205.841C286.171 205.783 286.975 204.972 286.98 198.257C286.997 176.27 286.971 154.282 286.916 131.425Z"/>
</mask>
<path d="M147.273 1.78333C149.993 -1.14484 151.882 -0.121399 154.235 2.36438C171.795 20.9094 174.838 49.6633 160.953 72.1915C157.706 77.4605 156.242 82.5493 156.559 88.5822C156.878 94.6732 156.629 100.795 156.629 107.591C159.611 106.188 160.02 103.967 160.889 102.159C170.832 81.4615 186.965 68.9302 209.703 65.1134C211.007 64.8945 212.359 64.9191 213.689 64.9005C222.761 64.774 223.431 65.5083 221.185 74.5753C214.976 99.634 197.885 113.217 173.708 119.185C165.995 121.089 157.276 130.781 157.018 138.892C156.728 148.028 157.204 157.19 157.405 166.339C157.422 167.093 157.893 167.838 158.522 169.651C163.51 164.732 168.011 160.293 172.761 155.613C197.299 133.916 225.718 121.661 257.624 116.727C270.056 114.804 282.467 114.845 294.942 114.825C299.225 114.819 300.778 116.433 300.761 120.758C300.638 152.255 300.605 183.754 300.793 215.25C300.821 219.968 298.934 220.78 294.855 220.595C267.864 219.367 241.789 223.581 216.896 234.313C190.034 245.894 168.246 263.613 152.134 288.147C151.602 288.956 150.939 289.679 150.436 290.317C148.919 290.281 148.552 289.221 148.06 288.433C131.23 261.517 106.963 243.884 77.8935 232.298C55.1506 223.233 31.4877 219.544 7.05854 220.476C0.0423636 220.743 0.0143785 220.683 0.0116625 213.929C-0.000544398 183.264 -0.00521362 152.6 0.00775623 121.936C0.0105942 115.23 0.301015 115.12 7.08881 114.84C36.6848 113.618 65.1158 118.502 92.0341 131.103C109.881 139.457 125.745 150.568 138.653 165.637C139.715 166.876 140.536 168.42 142.538 169.102C144.18 167.449 143.936 165.239 143.958 163.184C144.029 156.685 143.996 150.185 144.017 143.686C144.054 131.653 136.372 121.773 124.77 118.679C100.432 112.187 84.6165 97.3121 79.4111 72.1515C78.1051 65.8391 78.946 64.6336 85.4492 64.9347C110.491 66.0942 127.859 78.7141 138.68 100.983C140.154 104.017 140.703 107.573 143.28 110.133C145.1 108.788 144.954 107.05 144.964 105.441C145.008 97.7747 144.946 90.1079 145.021 82.4425C145.043 80.3016 144.274 78.6004 143.025 76.9542C135.986 67.6766 131.85 57.1307 131.349 45.59C130.626 28.9514 135.783 14.157 147.273 1.78333ZM21.7021 128.64C15.0619 128.336 13.7098 129.317 13.7011 134.374C13.664 156.027 13.757 177.681 13.6415 199.334C13.6166 204.019 15.4345 205.992 20.1494 205.89C42.4522 205.406 63.639 210.658 84.9902 218.93C107.077 228.006 126.415 241.161 143.462 259.589C143.691 255.199 143.968 252.23 143.979 249.26C144.031 235.269 143.698 221.267 144.142 207.29C144.377 199.865 142.126 193.635 138.187 187.658C124.688 167.175 106.362 152.495 84.1035 142.53C64.2545 133.645 43.3073 129.63 21.7021 128.64ZM286.916 131.425C286.548 128.235 284.092 128.584 281.984 128.67C270.681 129.132 259.448 130.215 248.367 132.622C218.938 139.014 193.282 152.276 172.822 174.663C162.52 185.936 157.869 186.123 157.405 207.29C157.023 224.75 156.905 238.769 156.768 250.753C156.741 253.191 156.461 255.714 158.11 257.919C160.292 257.353 161.307 255.487 162.684 254.135C168.989 247.942 175.462 241.95 182.749 236.911C211.878 216.769 244.069 206.155 279.568 205.841C286.171 205.783 286.975 204.972 286.98 198.257C286.997 176.27 286.971 154.282 286.916 131.425Z" fill="black"/>
<path d="M147.273 1.78333L146.541 1.10285L146.541 1.10286L147.273 1.78333ZM154.235 2.36438L154.961 1.67683V1.67683L154.235 2.36438ZM160.953 72.1915L161.804 72.7162V72.7162L160.953 72.1915ZM156.559 88.5822L155.56 88.6346V88.6346L156.559 88.5822ZM156.629 107.591H155.629V109.167L157.055 108.496L156.629 107.591ZM160.889 102.159L159.987 101.726L159.987 101.726L160.889 102.159ZM209.703 65.1134L209.538 64.1272H209.538L209.703 65.1134ZM213.689 64.9005L213.675 63.9006H213.675L213.689 64.9005ZM221.185 74.5753L220.214 74.3348V74.3348L221.185 74.5753ZM173.708 119.185L173.468 118.214V118.214L173.708 119.185ZM157.018 138.892L156.019 138.86V138.86L157.018 138.892ZM157.405 166.339L158.405 166.317V166.317L157.405 166.339ZM158.522 169.651L157.578 169.979L158.097 171.475L159.225 170.363L158.522 169.651ZM172.761 155.613L172.098 154.864L172.078 154.882L172.059 154.901L172.761 155.613ZM257.624 116.727L257.777 117.715V117.715L257.624 116.727ZM294.942 114.825L294.941 113.825V113.825L294.942 114.825ZM300.761 120.758L299.761 120.754V120.754L300.761 120.758ZM300.793 215.25L301.793 215.244V215.244L300.793 215.25ZM294.855 220.595L294.81 221.594V221.594L294.855 220.595ZM216.896 234.313L216.501 233.394V233.394L216.896 234.313ZM152.134 288.147L151.298 287.598L151.298 287.598L152.134 288.147ZM150.436 290.317L150.413 291.316L150.912 291.328L151.222 290.936L150.436 290.317ZM148.06 288.433L148.907 287.903V287.903L148.06 288.433ZM77.8935 232.298L78.2637 231.369V231.369L77.8935 232.298ZM7.05854 220.476L7.02042 219.476V219.476L7.05854 220.476ZM0.0116625 213.929L-0.988338 213.929V213.929L0.0116625 213.929ZM0.00775623 121.936L-0.992244 121.935V121.935L0.00775623 121.936ZM7.08881 114.84L7.13006 115.839V115.839L7.08881 114.84ZM92.0341 131.103L92.4581 130.197V130.197L92.0341 131.103ZM138.653 165.637L139.413 164.986V164.986L138.653 165.637ZM142.538 169.102L142.216 170.048L142.807 170.25L143.247 169.806L142.538 169.102ZM143.958 163.184L142.958 163.173V163.173L143.958 163.184ZM144.017 143.686L145.017 143.689V143.689L144.017 143.686ZM124.77 118.679L124.513 119.645V119.645L124.77 118.679ZM79.4111 72.1515L78.4318 72.3541V72.3541L79.4111 72.1515ZM85.4492 64.9347L85.4954 63.9358L85.4954 63.9358L85.4492 64.9347ZM138.68 100.983L139.579 100.545V100.545L138.68 100.983ZM143.28 110.133L142.575 110.842L143.184 111.447L143.875 110.937L143.28 110.133ZM144.964 105.441L145.964 105.446V105.446L144.964 105.441ZM145.021 82.4425L146.021 82.4524V82.4524L145.021 82.4425ZM143.025 76.9542L143.822 76.3498V76.3498L143.025 76.9542ZM131.349 45.59L130.35 45.6334V45.6334L131.349 45.59ZM21.7021 128.64L21.7479 127.641V127.641L21.7021 128.64ZM13.7011 134.374L14.7011 134.376V134.376L13.7011 134.374ZM13.6415 199.334L12.6416 199.329V199.329L13.6415 199.334ZM20.1494 205.89L20.171 206.89H20.171L20.1494 205.89ZM84.9902 218.93L85.3702 218.005L85.3609 218.001L85.3514 217.997L84.9902 218.93ZM143.462 259.589L142.728 260.268L144.337 262.008L144.46 259.641L143.462 259.589ZM143.979 249.26L144.979 249.264V249.264L143.979 249.26ZM144.142 207.29L145.141 207.322V207.322L144.142 207.29ZM138.187 187.658L139.022 187.108V187.108L138.187 187.658ZM84.1035 142.53L84.5121 141.618V141.618L84.1035 142.53ZM286.916 131.425L287.916 131.423L287.916 131.366L287.909 131.31L286.916 131.425ZM281.984 128.67L282.025 129.669V129.669L281.984 128.67ZM248.367 132.622L248.155 131.645V131.645L248.367 132.622ZM172.822 174.663L173.56 175.338V175.338L172.822 174.663ZM157.405 207.29L156.405 207.268V207.268L157.405 207.29ZM156.768 250.753L157.768 250.764V250.764L156.768 250.753ZM158.11 257.919L157.31 258.518L157.712 259.056L158.362 258.887L158.11 257.919ZM162.684 254.135L161.983 253.421L161.983 253.421L162.684 254.135ZM182.749 236.911L182.18 236.089V236.089L182.749 236.911ZM279.568 205.841L279.559 204.841V204.841L279.568 205.841ZM286.98 198.257L287.98 198.258V198.258L286.98 198.257ZM147.273 1.78333L148.006 2.4638C149.263 1.1106 150.094 0.915352 150.713 1.02759C151.465 1.16388 152.326 1.80249 153.509 3.05193L154.235 2.36438L154.961 1.67683C153.791 0.440494 152.531 -0.675505 151.07 -0.940339C149.476 -1.22923 148.003 -0.472111 146.541 1.10285L147.273 1.78333ZM154.235 2.36438L153.509 3.05192C170.752 21.2628 173.752 49.5184 160.102 71.6668L160.953 72.1915L161.804 72.7162C175.923 49.8082 172.837 20.556 154.961 1.67683L154.235 2.36438ZM160.953 72.1915L160.102 71.6668C156.76 77.0889 155.231 82.3767 155.56 88.6346L156.559 88.5822L157.557 88.5297C157.252 82.7219 158.651 77.8322 161.804 72.7162L160.953 72.1915ZM156.559 88.5822L155.56 88.6346C155.878 94.692 155.629 100.74 155.629 107.591H156.629H157.629C157.629 100.85 157.879 94.6544 157.557 88.5297L156.559 88.5822ZM156.629 107.591L157.055 108.496C160.446 106.9 161.019 104.198 161.79 102.592L160.889 102.159L159.987 101.726C159.022 103.736 158.775 105.476 156.203 106.686L156.629 107.591ZM160.889 102.159L161.79 102.592C171.597 82.1775 187.462 69.8608 209.869 66.0996L209.703 65.1134L209.538 64.1272C186.468 67.9996 170.067 80.7454 159.987 101.726L160.889 102.159ZM209.703 65.1134L209.869 66.0996C211.076 65.8969 212.324 65.9197 213.703 65.9004L213.689 64.9005L213.675 63.9006C212.394 63.9185 210.938 63.8921 209.538 64.1272L209.703 65.1134ZM213.689 64.9005L213.703 65.9004C215.979 65.8687 217.645 65.8937 218.857 66.073C220.083 66.2542 220.625 66.5644 220.894 66.9076C221.166 67.254 221.345 67.8705 221.24 69.138C221.136 70.3894 220.777 72.0624 220.214 74.3348L221.185 74.5753L222.155 74.8158C222.715 72.5547 223.115 70.7358 223.233 69.3034C223.351 67.8871 223.217 66.6278 222.468 65.6731C221.716 64.7151 220.531 64.2987 219.15 64.0945C217.755 63.8884 215.935 63.8691 213.675 63.9006L213.689 64.9005ZM221.185 74.5753L220.214 74.3348C217.153 86.6869 211.425 96.167 203.515 103.296C195.596 110.433 185.441 115.259 173.468 118.214L173.708 119.185L173.948 120.156C186.152 117.143 196.631 112.193 204.854 104.782C213.085 97.3634 219.007 87.5224 222.155 74.8158L221.185 74.5753ZM173.708 119.185L173.468 118.214C169.349 119.231 165.073 122.282 161.811 126.057C158.552 129.828 156.158 134.491 156.019 138.86L157.018 138.892L158.018 138.923C158.137 135.182 160.231 130.943 163.324 127.365C166.414 123.79 170.354 121.043 173.948 120.156L173.708 119.185ZM157.018 138.892L156.019 138.86C155.727 148.032 156.205 157.252 156.405 166.361L157.405 166.339L158.405 166.317C158.202 157.128 157.729 148.024 158.018 138.923L157.018 138.892ZM157.405 166.339L156.405 166.361C156.418 166.933 156.604 167.454 156.803 167.962C157.014 168.501 157.271 169.097 157.578 169.979L158.522 169.651L159.467 169.324C159.144 168.392 158.851 167.708 158.665 167.233C158.467 166.727 158.409 166.499 158.405 166.317L157.405 166.339ZM158.522 169.651L159.225 170.363C164.213 165.444 168.713 161.005 173.462 156.326L172.761 155.613L172.059 154.901C167.309 159.581 162.808 164.02 157.82 168.939L158.522 169.651ZM172.761 155.613L173.423 156.363C197.803 134.805 226.04 122.623 257.777 117.715L257.624 116.727L257.471 115.738C225.397 120.699 196.795 133.027 172.098 154.864L172.761 155.613ZM257.624 116.727L257.777 117.715C270.119 115.806 282.452 115.845 294.944 115.825L294.942 114.825L294.941 113.825C282.483 113.845 269.992 113.802 257.471 115.738L257.624 116.727ZM294.942 114.825L294.944 115.825C297.002 115.822 298.115 116.218 298.748 116.866C299.387 117.52 299.769 118.665 299.761 120.754L300.761 120.758L301.761 120.762C301.769 118.525 301.383 116.701 300.179 115.468C298.97 114.23 297.165 113.822 294.941 113.825L294.942 114.825ZM300.761 120.758L299.761 120.754C299.638 152.253 299.605 183.755 299.793 215.256L300.793 215.25L301.793 215.244C301.605 183.752 301.638 152.257 301.761 120.762L300.761 120.758ZM300.793 215.25L299.793 215.256C299.807 217.54 299.343 218.505 298.746 218.975C298.088 219.493 296.95 219.689 294.901 219.596L294.855 220.595L294.81 221.594C296.839 221.686 298.685 221.569 299.983 220.547C301.341 219.478 301.807 217.678 301.793 215.244L300.793 215.25ZM294.855 220.595L294.901 219.596C267.772 218.362 241.544 222.597 216.501 233.394L216.896 234.313L217.292 235.231C242.033 224.565 267.955 220.372 294.81 221.594L294.855 220.595ZM216.896 234.313L216.501 233.394C189.468 245.049 167.524 262.892 151.298 287.598L152.134 288.147L152.97 288.696C168.969 264.334 190.599 246.739 217.292 235.231L216.896 234.313ZM152.134 288.147L151.298 287.598C150.796 288.362 150.22 288.976 149.651 289.697L150.436 290.317L151.222 290.936C151.658 290.382 152.409 289.549 152.97 288.696L152.134 288.147ZM150.436 290.317L150.46 289.317C149.98 289.306 149.761 289.153 149.595 288.975C149.492 288.865 149.394 288.724 149.281 288.537C149.209 288.418 149.015 288.075 148.907 287.903L148.06 288.433L147.212 288.963C147.35 289.185 147.387 289.27 147.57 289.572C147.711 289.806 147.892 290.081 148.132 290.339C148.652 290.897 149.376 291.292 150.413 291.316L150.436 290.317ZM148.06 288.433L148.907 287.903C131.942 260.77 107.487 243.017 78.2637 231.369L77.8935 232.298L77.5233 233.227C106.44 244.752 130.518 262.264 147.212 288.963L148.06 288.433ZM77.8935 232.298L78.2637 231.369C55.3813 222.249 31.5782 218.54 7.02042 219.476L7.05854 220.476L7.09665 221.475C31.3972 220.548 54.9198 224.218 77.5233 233.227L77.8935 232.298ZM7.05854 220.476L7.02042 219.476C5.24459 219.544 3.99238 219.587 3.07203 219.518C2.13906 219.449 1.7707 219.276 1.58759 219.105C1.41124 218.94 1.22515 218.607 1.12029 217.721C1.01621 216.842 1.01235 215.641 1.01166 213.928L0.0116625 213.929L-0.988338 213.929C-0.987666 215.593 -0.98701 216.933 -0.865825 217.956C-0.745402 218.974 -0.485499 219.905 0.222524 220.566C0.923772 221.221 1.8781 221.435 2.92376 221.513C3.98205 221.591 5.3644 221.541 7.09665 221.475L7.05854 220.476ZM0.0116625 213.929L1.01166 213.928C0.999455 183.264 0.994786 152.6 1.00776 121.936L0.00775623 121.936L-0.992244 121.935C-1.00521 152.6 -1.00054 183.265 -0.988338 213.929L0.0116625 213.929ZM0.00775623 121.936L1.00776 121.936C1.00847 120.244 1.02887 119.052 1.15123 118.175C1.27286 117.304 1.47526 116.916 1.70292 116.693C1.93929 116.462 2.35956 116.256 3.27459 116.112C4.18729 115.968 5.41364 115.91 7.13006 115.839L7.08881 114.84L7.04757 113.841C5.37008 113.91 4.0147 113.971 2.9638 114.136C1.91521 114.301 0.989995 114.593 0.304936 115.263C-0.388835 115.941 -0.683818 116.855 -0.82957 117.899C-0.974574 118.938 -0.991542 120.274 -0.992244 121.935L0.00775623 121.936ZM7.08881 114.84L7.13006 115.839C36.5853 114.623 64.8539 119.483 91.6102 132.008L92.0341 131.103L92.4581 130.197C65.3776 117.52 36.7843 112.613 7.04757 113.841L7.08881 114.84ZM92.0341 131.103L91.6102 132.008C109.353 140.314 125.094 151.345 137.894 166.287L138.653 165.637L139.413 164.986C126.396 149.79 110.408 138.6 92.4581 130.197L92.0341 131.103ZM138.653 165.637L137.894 166.287C138.794 167.339 139.874 169.251 142.216 170.048L142.538 169.102L142.86 168.155C141.199 167.589 140.635 166.413 139.413 164.986L138.653 165.637ZM142.538 169.102L143.247 169.806C144.263 168.784 144.677 167.596 144.845 166.437C145.005 165.333 144.948 164.135 144.958 163.195L143.958 163.184L142.958 163.173C142.946 164.288 143 165.222 142.865 166.151C142.739 167.024 142.455 167.766 141.829 168.397L142.538 169.102ZM143.958 163.184L144.958 163.195C145.029 156.692 144.996 150.176 145.017 143.689L144.017 143.686L143.017 143.683C142.996 150.194 143.029 156.678 142.958 163.173L143.958 163.184ZM144.017 143.686L145.017 143.689C145.056 131.196 137.062 120.923 125.028 117.713L124.77 118.679L124.513 119.645C135.682 122.624 143.053 132.111 143.017 143.683L144.017 143.686ZM124.77 118.679L125.028 117.713C112.991 114.502 103.121 109.235 95.6244 101.71C88.1317 94.1897 82.9588 84.3637 80.3903 71.9489L79.4111 72.1515L78.4318 72.3541C81.0688 85.0999 86.4064 95.2915 94.2076 103.122C102.005 110.948 112.212 116.364 124.513 119.645L124.77 118.679ZM79.4111 72.1515L80.3903 71.9489C80.066 70.3811 79.8919 69.2049 79.8891 68.3153C79.8862 67.4256 80.0562 66.965 80.2762 66.6956C80.4918 66.4317 80.8945 66.1817 81.75 66.0328C82.6101 65.8831 83.7914 65.859 85.4029 65.9336L85.4492 64.9347L85.4954 63.9358C83.8554 63.8598 82.4928 63.8735 81.4071 64.0624C80.3167 64.2522 79.3715 64.6416 78.7272 65.4305C78.0873 66.2139 77.8855 67.2194 77.8891 68.3217C77.8926 69.4241 78.1032 70.7656 78.4318 72.3541L79.4111 72.1515ZM85.4492 64.9347L85.4029 65.9336C97.7606 66.5058 108.177 69.9014 116.83 75.8661C125.486 81.8333 132.43 90.4087 137.78 101.42L138.68 100.983L139.579 100.545C134.109 89.2879 126.958 80.4192 117.965 74.2194C108.968 68.0172 98.1795 64.5231 85.4954 63.9358L85.4492 64.9347ZM138.68 100.983L137.78 101.42C138.504 102.91 138.946 104.4 139.64 106.111C140.303 107.748 141.146 109.422 142.575 110.842L143.28 110.133L143.985 109.423C142.838 108.284 142.118 106.9 141.493 105.36C140.899 103.894 140.329 102.09 139.579 100.545L138.68 100.983ZM143.28 110.133L143.875 110.937C146.161 109.247 145.955 106.941 145.964 105.446L144.964 105.441L143.964 105.435C143.954 107.159 144.039 108.329 142.686 109.329L143.28 110.133ZM144.964 105.441L145.964 105.446C146.008 97.7502 145.946 90.1267 146.021 82.4524L145.021 82.4425L144.021 82.4326C143.946 90.0891 144.008 97.7991 143.964 105.435L144.964 105.441ZM145.021 82.4425L146.021 82.4524C146.045 80.0276 145.162 78.1156 143.822 76.3498L143.025 76.9542L142.229 77.5587C143.387 79.0853 144.04 80.5755 144.021 82.4326L145.021 82.4425ZM143.025 76.9542L143.822 76.3498C136.893 67.2176 132.839 56.8643 132.348 45.5466L131.349 45.59L130.35 45.6334C130.86 57.3972 135.079 68.1355 142.229 77.5587L143.025 76.9542ZM131.349 45.59L132.348 45.5466C131.636 29.1648 136.705 14.634 148.006 2.4638L147.273 1.78333L146.541 1.10286C134.861 13.68 129.616 28.738 130.35 45.6334L131.349 45.59ZM21.7021 128.64L21.7479 127.641C20.0726 127.564 18.6766 127.565 17.5318 127.704C16.3896 127.842 15.409 128.126 14.6315 128.684C13.0124 129.847 12.7054 131.863 12.7011 134.372L13.7011 134.374L14.7011 134.376C14.7055 131.828 15.0788 130.825 15.798 130.309C16.1897 130.028 16.7927 129.807 17.7719 129.689C18.7484 129.571 20.0115 129.563 21.6563 129.639L21.7021 128.64ZM13.7011 134.374L12.7011 134.372C12.664 156.035 12.757 177.677 12.6416 199.329L13.6415 199.334L14.6415 199.339C14.757 177.686 14.6641 156.02 14.7011 134.376L13.7011 134.374ZM13.6415 199.334L12.6416 199.329C12.6286 201.762 13.0855 203.757 14.4025 205.106C15.7287 206.464 17.7042 206.943 20.171 206.89L20.1494 205.89L20.1277 204.89C17.8796 204.939 16.5887 204.482 15.8336 203.708C15.0691 202.925 14.6295 201.591 14.6415 199.339L13.6415 199.334ZM20.1494 205.89L20.171 206.89C42.2991 206.41 63.3507 211.619 84.6289 219.862L84.9902 218.93L85.3514 217.997C63.9273 209.697 42.6053 204.403 20.1277 204.89L20.1494 205.89ZM84.9902 218.93L84.6101 219.855C106.565 228.877 125.782 241.949 142.728 260.268L143.462 259.589L144.196 258.91C127.049 240.374 107.589 227.135 85.3702 218.005L84.9902 218.93ZM143.462 259.589L144.46 259.641C144.687 255.306 144.968 252.265 144.979 249.264L143.979 249.26L142.979 249.256C142.969 252.196 142.695 255.093 142.463 259.537L143.462 259.589ZM143.979 249.26L144.979 249.264C145.031 235.234 144.698 221.283 145.141 207.322L144.142 207.29L143.142 207.258C142.697 221.252 143.031 235.304 142.979 249.256L143.979 249.26ZM144.142 207.29L145.141 207.322C145.385 199.648 143.049 193.218 139.022 187.108L138.187 187.658L137.352 188.209C141.203 194.052 143.37 200.082 143.142 207.258L144.142 207.29ZM138.187 187.658L139.022 187.108C125.408 166.45 106.926 151.652 84.5121 141.618L84.1035 142.53L83.6949 143.443C105.798 153.338 123.969 167.9 137.352 188.209L138.187 187.658ZM84.1035 142.53L84.5121 141.618C64.5232 132.67 43.4472 128.635 21.7479 127.641L21.7021 128.64L21.6563 129.639C43.1675 130.624 63.9858 134.62 83.6949 143.443L84.1035 142.53ZM286.916 131.425L287.909 131.31C287.803 130.388 287.535 129.626 287.083 129.032C286.624 128.427 286.032 128.07 285.412 127.868C284.81 127.672 284.177 127.621 283.602 127.616C283.036 127.61 282.432 127.651 281.943 127.671L281.984 128.67L282.025 129.669C282.591 129.646 283.084 129.611 283.583 129.615C284.072 129.62 284.472 129.665 284.793 129.77C285.097 129.869 285.319 130.017 285.49 130.241C285.668 130.476 285.845 130.867 285.923 131.54L286.916 131.425ZM281.984 128.67L281.943 127.671C270.605 128.134 259.311 129.222 248.155 131.645L248.367 132.622L248.579 133.599C259.585 131.209 270.757 130.13 282.025 129.669L281.984 128.67ZM248.367 132.622L248.155 131.645C218.555 138.074 192.704 151.427 172.084 173.989L172.822 174.663L173.56 175.338C193.861 153.125 219.322 139.954 248.579 133.599L248.367 132.622ZM172.822 174.663L172.084 173.989C169.523 176.791 167.337 178.879 165.418 180.841C163.513 182.787 161.886 184.594 160.571 186.745C157.922 191.077 156.639 196.634 156.405 207.268L157.405 207.29L158.405 207.312C158.636 196.779 159.91 191.659 162.277 187.788C163.471 185.837 164.968 184.16 166.847 182.24C168.711 180.334 170.97 178.172 173.56 175.338L172.822 174.663ZM157.405 207.29L156.405 207.268C156.023 224.735 155.905 238.76 155.769 250.742L156.768 250.753L157.768 250.764C157.905 238.777 158.022 224.765 158.405 207.312L157.405 207.29ZM156.768 250.753L155.769 250.742C155.742 253.023 155.408 255.977 157.31 258.518L158.11 257.919L158.911 257.32C157.513 255.452 157.739 253.359 157.768 250.764L156.768 250.753ZM158.11 257.919L158.362 258.887C159.693 258.542 160.643 257.8 161.41 257.025C161.788 256.643 162.135 256.238 162.452 255.87C162.778 255.493 163.074 255.153 163.384 254.848L162.684 254.135L161.983 253.421C161.605 253.792 161.258 254.193 160.938 254.563C160.61 254.944 160.309 255.294 159.988 255.618C159.358 256.256 158.71 256.73 157.859 256.951L158.11 257.919ZM162.684 254.135L163.384 254.848C169.68 248.665 176.104 242.722 183.318 237.734L182.749 236.911L182.18 236.089C174.821 241.178 168.298 247.219 161.983 253.421L162.684 254.135ZM182.749 236.911L183.318 237.734C212.289 217.701 244.286 207.153 279.577 206.841L279.568 205.841L279.559 204.841C243.852 205.157 211.468 215.837 182.18 236.089L182.749 236.911ZM279.568 205.841L279.577 206.841C281.231 206.826 282.597 206.765 283.696 206.558C284.805 206.349 285.75 205.973 286.463 205.245C287.174 204.518 287.536 203.561 287.733 202.439C287.929 201.325 287.979 199.939 287.98 198.258L286.98 198.257L285.98 198.256C285.979 199.932 285.927 201.165 285.764 202.094C285.602 203.014 285.35 203.523 285.034 203.846C284.719 204.167 284.225 204.424 283.326 204.593C282.417 204.764 281.207 204.826 279.559 204.841L279.568 205.841ZM286.98 198.257L287.98 198.258C287.997 176.269 287.971 154.281 287.916 131.423L286.916 131.425L285.916 131.427C285.971 154.284 285.997 176.27 285.98 198.256L286.98 198.257Z" fill="black" mask="url(#path-1-inside-1_2002_4)"/>
</svg>
